{"title":"Star.Wars.The.Last.Jedi.2017.1080p.BRRIPx265.10bits.L5-ROI","magnet":"magnet:?xt=urn:btih:e39a3d56d0b41e8e9cefbecfd29d91dc8652f826&dn=Star.Wars.The.Last.Jedi.2017.1080p.BRRIPx265.10bits.L5-ROI&tr=udp%3A%2F%2Ftracker.leechers-paradise.org%3A6969&tr=udp%3A%2F%2Fzer0day.ch%3A1337&tr=udp%3A%2F%2Fopen.demonii.com%3A1337&tr=udp%3A%2F%2Ftracker.coppersurfer.tk%3A6969&tr=udp%3A%2F%2Fexodus.desync.com%3A6969","uploader":"Royner23","categoryP":"video","categoryS":"hd___movies","size":"8606895029","seeders":"0","leechers":"12","description":"Complete name: Star.Wars.The.Last.Jedi.2017.1080p.BRRIP.x265.10bits.L5-ROIMEZ\r\nRey develops her newly discovered abilities with the guidance of Luke Skywalker, who is unsettled\r\nby the strength of her powers. Meanwhile, the Resistance prepares for battle with the First Order.\r\n\r\nGenres:  Action, Adventure, Fantasy\r\nDirector: Rian Johnson\r\nWriters: Rian Johnson, George Lucas\r\nCast:  Daisy Ridley, John Boyega, Mark Hamill\r\n\r\nRelease date: 15 December 2017   \r\nLanguage: English\r\nSubtitles: English &amp; Spanish.srt\r\nSource: Star.Wars.The.Last.Jedi.2017.iNTERNAL.1080p.BluRay.x264-SPRiNTER\r\n\r\nGeneral\r\nFormat                      : Matroska\r\nFormat version              : Version 4 / Version 2\r\nFile size                   : 8.02 GiB\r\nDuration                    : 2 h 31 min\r\nOverall bit rate            : 7 557 kb/s\r\nEncoded date                : UTC 2018-03-14 23:43:44\r\nWriting application         : mkvmerge v20.0.0 (&apos;I Am The Sun&apos;) 64-bit\r\nWriting library             : libebml v1.3.5 + libmatroska v1.4.8\r\n\r\nVideo\r\nID                          : 1\r\nFormat                      : HEVC\r\nFormat/Info                 : High Efficiency Video Coding\r\nFormat profile              : Main <a href=\"/cdn-cgi/l/email-protection\" class=\"__cf_email__\" data-cfemail=\"be8f8efef28b\">[email&#xA0;protected]</a>@High\r\nCodec ID                    : V_MPEGH/ISO/HEVC\r\nDuration                    : 2 h 31 min\r\nEncoding settings/Bit rate  : 2pass/6 045 kb/s\r\nWidth                       : 1 920 pixels\r\nHeight                      : 804 pixels\r\nDisplay aspect ratio        : 2.40:1\r\nFrame rate mode             : Constant\r\nFrame rate                  : 23.976 (23976/1000) FPS\r\nOriginal frame rate         : 23.976 (24000/1001) FPS\r\nColor space                 : YUV\r\nChroma subsampling          : 4:2:0\r\nBit depth                   : 10 bits\r\nBits/(Pixel*Frame)          : 0.163\r\nStream size                 : 6.41 GiB (80%)\r\nWriting library             : x265 \r\nDefault                     : Yes\r\nForced                      : No\r\nColor range                 : Limited\r\nColor primaries             : BT.709\r\nTransfer characteristics    : BT.709\r\nMatrix coefficients         : BT.709\r\n\r\nAudio\r\nID                          : 2\r\nFormat                      : DTS\r\nFormat/Info                 : Digital Theater Systems\r\nCodec ID                    : A_DTS\r\nDuration                    : 2 h 31 min\r\nBit rate mode               : Constant\r\nBit rate                    : 1 509 kb/s\r\nChannel(s)                  : 6 channels\r\nChannel positions           : Front: L C R, Side: L R, LFE\r\nSampling rate               : 48.0 kHz\r\nFrame rate                  : 93.750 FPS (512 SPF)\r\nBit depth                   : 24 bits\r\nCompression mode            : Lossy\r\nStream size                 : 1.60 GiB (20%)\r\nDefault                     : Yes\r\nForced                      : No\r\n\r\nScreencaps:  <a href=\"\nhttps://image.ibb.co/egcJec/Star_Wars_The_Last_Jedi_2017.png\" rel=\"nofollow\" target=\"_NEW\">\nhttps://image.ibb.co/egcJec/Star_Wars_The_Last_Jedi_2017.png</a>\r\n\r\nPlease continue seeding and sharing the torrent, thanks","last_updated":"2018-03-15T12:18:44.554Z","parsed":{"xt":"urn:btih:e39a3d56d0b41e8e9cefbecfd29d91dc8652f826","dn":"Star.Wars.The.Last.Jedi.2017.1080p.BRRIPx265.10bits.L5-ROI","tr":["udp://exodus.desync.com:6969","udp://open.demonii.com:1337","udp://tracker.coppersurfer.tk:6969","udp://tracker.leechers-paradise.org:6969","udp://zer0day.ch:1337"],"infoHash":"e39a3d56d0b41e8e9cefbecfd29d91dc8652f826","infoHashBuffer":{"type":"Buffer","data":[227,154,61,86,208,180,30,142,156,239,190,207,210,157,145,220,134,82,248,38]},"name":"Star.Wars.The.Last.Jedi.2017.1080p.BRRIPx265.10bits.L5-ROI","announce":["udp://exodus.desync.com:6969","udp://open.demonii.com:1337","udp://tracker.coppersurfer.tk:6969","udp://tracker.leechers-paradise.org:6969","udp://zer0day.ch:1337"],"urlList":[]}}